<svg width="34" height="34" viewBox="0 0 34 34" fill="none" xmlns="http://www.w3.org/2000/svg">
<path d="M25.0005 1H8.11089C6.22497 1 4.41628 1.74918 3.08273 3.08273C1.74918 4.41628 1 6.22497 1 8.11089V25.0005C1 25.9343 1.18393 26.859 1.54128 27.7217C1.89864 28.5844 2.42243 29.3683 3.08273 30.0286C3.74304 30.689 4.52694 31.2127 5.38967 31.5701C6.25241 31.9275 7.17708 32.1114 8.11089 32.1114H25.0005C25.9343 32.1114 26.859 31.9275 27.7217 31.5701C28.5844 31.2127 29.3683 30.689 30.0286 30.0286C30.689 29.3683 31.2127 28.5844 31.5701 27.7217C31.9275 26.859 32.1114 25.9343 32.1114 25.0005V8.11089C32.1114 7.17708 31.9275 6.25241 31.5701 5.38967C31.2127 4.52694 30.689 3.74304 30.0286 3.08273C29.3683 2.42243 28.5844 1.89864 27.7217 1.54128C26.859 1.18393 25.9343 1 25.0005 1V1Z" fill="white"/>
<path d="M25.4448 1H8.5552C6.55144 1 4.62974 1.79599 3.21287 3.21287C1.79599 4.62974 1 6.55144 1 8.5552V25.4448C1 27.4486 1.79599 29.3703 3.21287 30.7871C4.62974 32.204 6.55144 33 8.5552 33H25.4448C27.4486 33 29.3703 32.204 30.7871 30.7871C32.204 29.3703 33 27.4486 33 25.4448V8.5552C33 6.55144 32.204 4.62974 30.7871 3.21287C29.3703 1.79599 27.4486 1 25.4448 1V1Z" stroke="#A69171" stroke-opacity="0.2" stroke-width="0.914"/>
<path d="M10.25 19.25H14.75V10.25L8 17L10.25 19.25Z" fill="#1E1919"/>
<path d="M23.75 14.75L17 8L14.75 10.25V14.75H23.75Z" fill="#0061FE"/>
<path d="M19.25 23.75L26 17L23.75 14.75H19.25V23.75Z" fill="#1E1919"/>
<path d="M10.25 19.25L17 26L19.25 23.75V19.25H10.25Z" fill="#0061FE"/>
</svg>
